<?xml version="1.0" standalone="no"?>
<!DOCTYPE svg PUBLIC "-//W3C//DTD SVG 20010904//EN"
 "http://www.w3.org/TR/2001/REC-SVG-20010904/DTD/svg10.dtd">
<svg version="1.0" xmlns="http://www.w3.org/2000/svg"
 width="259.000000pt" height="243.000000pt" viewBox="0 0 259.000000 243.000000"
 preserveAspectRatio="xMidYMid meet">

<g transform="translate(0.000000,243.000000) scale(0.100000,-0.100000)"
fill="#000000" stroke="none">
<path d="M1305 2422 c-11 -2 -29 -13 -41 -23 -19 -18 -22 -18 -34 -4 -7 9 -28
15 -50 15 -30 0 -44 -6 -62 -29 -24 -28 -24 -28 -48 -9 -29 23 -64 17 -101
-18 -21 -20 -30 -23 -51 -15 -26 10 -75 -7 -90 -32 -4 -7 -20 -10 -37 -9 -21
2 -39 -5 -65 -28 -22 -20 -42 -30 -52 -26 -43 17 -117 -60 -134 -140 -10 -48
-12 -50 -39 -46 -56 8 -141 -95 -141 -171 0 -75 67 -113 142 -79 48 21 60 33
88 88 19 38 19 38 20 11 0 -40 41 -77 84 -77 66 0 125 37 167 105 16 26 19 27
19 9 0 -25 29 -54 55 -54 19 0 85 37 85 48 0 4 4 13 9 21 7 11 13 10 35 -4 35
-23 81 -13 122 26 27 26 32 28 44 14 8 -9 29 -15 57 -15 36 0 50 6 74 30 27
27 30 34 25 77 -3 27 -3 41 0 33 41 -98 77 -125 160 -118 39 3 61 11 80 29
100 92 78 288 -40 360 -81 50 -163 3 -196 -111 -21 -74 -26 -48 -8 46 9 48 9
66 -1 77 -13 17 -46 25 -76 19z m43 -31 c11 -7 12 -25 3 -98 -8 -65 -8 -112 0
-168 9 -71 9 -80 -8 -96 -26 -25 -64 -32 -87 -16 -18 13 -18 16 4 103 18 70
21 106 17 172 -4 76 -3 84 16 97 24 17 36 18 55 6z m-138 -16 c10 -12 8 -24
-6 -62 -12 -33 -18 -84 -20 -166 -3 -137 -6 -150 -40 -165 -65 -30 -85 -6 -93
118 -5 66 -9 85 -21 85 -12 0 -16 -21 -20 -113 -5 -104 -7 -115 -29 -133 -28
-23 -59 -25 -67 -4 -4 8 4 52 16 97 12 45 25 126 28 180 4 87 8 101 30 123 53
53 82 24 82 -82 0 -80 8 -113 25 -113 20 0 25 24 25 120 0 84 1 90 26 109 32
25 47 26 64 6z m380 -21 c67 -57 94 -178 56 -252 -50 -97 -169 -105 -215 -13
-24 46 -28 146 -10 202 30 87 106 116 169 63z m-343 -121 c-3 -54 -11 -116
-18 -138 l-12 -40 -9 40 c-12 57 16 235 38 235 4 0 4 -44 1 -97z m-337 69 c0
-11 -9 -45 -21 -78 -11 -32 -22 -90 -25 -129 -8 -114 -13 -134 -46 -171 -38
-43 -77 -64 -121 -64 -64 0 -73 42 -32 158 13 39 28 96 31 128 5 43 14 65 37
90 24 28 57 45 57 30 0 -2 -16 -45 -35 -96 -42 -107 -48 -157 -22 -174 45 -29
84 43 93 177 6 85 10 100 32 122 29 30 52 32 52 7z m-4 -242 l-23 -95 4 75 c2
41 12 107 21 145 l17 70 3 -50 c1 -28 -8 -91 -22 -145z m-279 63 c-20 -48 -39
-110 -43 -138 -9 -67 -38 -122 -77 -145 -61 -37 -117 -15 -117 46 0 42 12 68
53 112 43 45 65 43 37 -3 -23 -37 -21 -65 4 -65 28 0 54 42 71 113 9 40 21 84
27 100 11 27 66 82 75 73 3 -2 -11 -44 -30 -93z m168 -3 c-7 -59 -35 -113 -51
-97 -7 6 11 76 38 146 14 39 21 16 13 -49z m-130 -12 c-10 -46 -46 -140 -51
-135 -11 11 38 167 52 167 3 0 2 -15 -1 -32z"/>
<path d="M1494 2319 c-43 -48 -14 -179 40 -179 65 0 90 126 36 180 -26 26 -52
25 -76 -1z m66 -28 c22 -42 6 -121 -25 -121 -20 0 -35 32 -35 77 0 58 37 85
60 44z"/>
<path d="M1682 2353 c-7 -11 -5 -30 5 -57 17 -48 22 -141 9 -208 -7 -43 -6
-49 17 -72 21 -21 36 -26 75 -26 26 0 53 5 59 11 8 8 17 5 32 -10 23 -23 106
-30 113 -10 2 7 20 2 48 -13 57 -29 179 -33 206 -6 21 21 12 61 -21 93 -15 16
-21 31 -18 44 4 15 -9 35 -48 74 -90 89 -192 122 -206 66 -5 -17 -9 -14 -30
19 -30 46 -76 79 -139 98 -62 18 -91 18 -102 -3z m132 -38 c51 -24 93 -69 101
-106 6 -27 3 -36 -21 -59 -23 -21 -33 -25 -46 -16 -32 19 -43 -6 -24 -54 26
-65 -8 -89 -75 -54 -31 15 -31 15 -23 77 10 81 7 137 -11 188 -8 23 -15 44
-15 47 0 10 78 -6 114 -23z m232 -91 c44 -21 49 -30 17 -29 -14 0 -28 -5 -30
-11 -6 -19 38 -64 92 -95 68 -38 107 -75 103 -97 -2 -13 -15 -18 -58 -20 -94
-5 -170 37 -170 95 0 25 18 31 26 9 3 -8 21 -22 41 -31 31 -15 37 -15 50 -2
13 13 13 17 -4 33 -11 11 -41 31 -67 47 -32 18 -52 39 -62 63 -23 55 -2 68 62
38z m-78 -68 c17 -29 19 -39 9 -60 -15 -32 -18 -32 -47 -1 -22 23 -22 26 -7
43 10 10 17 26 17 35 0 25 6 21 28 -17z m200 -41 c-11 -11 -48 20 -48 40 0 18
2 17 27 -7 15 -15 24 -30 21 -33z m-203 -114 c-6 -5 -23 -7 -39 -4 -30 6 -56
50 -56 95 0 20 7 16 52 -29 33 -34 49 -56 43 -62z"/>
<path d="M1802 2228 c3 -49 5 -53 28 -53 21 0 26 5 28 33 4 36 -19 72 -45 72
-11 0 -13 -13 -11 -52z"/>
<path d="M1447 1890 c-66 -12 -101 -35 -92 -63 26 -84 27 -102 6 -202 -18 -89
-19 -102 -5 -122 12 -19 23 -23 62 -23 53 1 114 20 142 45 31 28 33 66 6 146
-42 125 -9 116 43 -12 45 -109 52 -113 178 -117 88 -3 107 -1 124 14 25 23 24
40 -7 109 -31 67 -34 123 -9 161 17 27 17 28 -4 45 -27 22 -98 33 -159 25 -62
-8 -70 -18 -49 -61 19 -39 23 -95 7 -95 -6 0 -23 25 -38 57 -15 31 -38 64 -52
74 -31 22 -90 29 -153 19z"/>
<path d="M1968 1873 c-21 -5 -25 -52 -6 -71 7 -7 36 -12 64 -12 29 0 64 -4 78
-10 23 -8 26 -15 26 -57 0 -27 -7 -69 -16 -94 -16 -44 -16 -48 2 -85 46 -94
162 -113 242 -41 32 30 27 58 -19 116 -42 52 -72 118 -62 134 3 5 40 7 82 6
65 -3 76 -2 79 13 6 32 -42 47 -246 78 -111 16 -203 29 -204 29 -2 -1 -11 -3
-20 -6z"/>
<path d="M1068 1804 c-115 -27 -130 -41 -190 -166 -30 -62 -78 -151 -107 -197
-28 -46 -50 -90 -47 -98 4 -9 28 -13 85 -13 75 0 80 2 103 29 14 16 32 56 42
89 14 52 21 62 51 76 20 10 39 14 44 11 6 -3 21 -30 34 -59 31 -68 54 -82 101
-62 46 19 111 79 127 117 12 31 12 32 -59 98 -81 75 -92 94 -92 150 0 47 -2
47 -92 25z m-36 -188 c4 -18 -1 -27 -19 -35 -26 -12 -30 -1 -13 44 11 30 26
26 32 -9z"/>
<path d="M353 1708 c-90 -20 -136 -111 -97 -193 20 -42 53 -66 136 -96 64 -24
81 -39 72 -62 -16 -43 -102 -23 -147 36 -20 26 -32 34 -47 30 -32 -9 -60 -52
-60 -93 0 -53 30 -76 125 -96 107 -22 177 -15 253 26 75 40 101 67 109 113 8
51 -26 82 -98 92 -80 11 -138 31 -165 56 -47 44 -21 89 52 89 51 0 67 -19 40
-49 -20 -22 -20 -26 0 -45 20 -21 86 -21 125 0 61 31 74 127 23 161 -58 38
-222 54 -321 31z"/>
<path d="M1784 1462 c-81 -74 -51 -96 57 -42 67 34 82 56 54 76 -32 23 -58 15
-111 -34z"/>
<path d="M1394 1381 c-34 -15 -36 -39 -8 -119 33 -98 38 -210 10 -241 -27 -30
-62 -26 -98 10 -30 30 -31 32 -25 107 3 42 16 105 28 140 30 81 22 96 -50 100
-57 3 -142 -20 -162 -44 -10 -12 -9 -22 6 -52 23 -49 31 -155 16 -234 -11 -56
-10 -69 5 -107 21 -54 76 -95 162 -121 135 -42 257 -16 296 63 18 37 18 41 1
128 -20 99 -16 184 10 246 21 49 13 77 -30 103 -38 24 -128 35 -161 21z"/>
<path d="M2165 1376 c-93 -29 -163 -82 -184 -137 -9 -26 -2 -83 14 -109 14
-23 90 -50 141 -50 86 0 112 -46 39 -70 -42 -14 -80 -4 -105 27 -18 23 -20 23
-48 9 -62 -32 -77 -123 -30 -173 47 -50 193 -21 331 67 67 42 127 100 127 123
0 15 -45 59 -77 76 -12 6 -54 16 -94 21 -85 12 -119 31 -119 64 0 32 31 57 79
63 49 7 62 -12 36 -51 -16 -24 -15 -25 7 -39 27 -18 118 -31 147 -22 43 13 21
97 -45 174 l-36 41 -71 -1 c-40 0 -90 -6 -112 -13z"/>
<path d="M1720 1341 c-79 -12 -80 -15 -46 -131 21 -70 21 -199 1 -270 -8 -30
-18 -72 -22 -92 -6 -37 -5 -38 42 -59 56 -25 127 -21 177 8 50 29 54 43 34
126 -27 116 -32 240 -12 317 17 64 17 65 -5 83 -12 9 -31 17 -44 17 -12 0 -35
2 -51 4 -16 2 -49 1 -74 -3z"/>
<path d="M737 1280 c-31 -10 -68 -25 -82 -34 l-25 -16 20 -33 c23 -37 27 -145
8 -209 -8 -27 -8 -42 -1 -49 6 -6 90 -27 187 -46 221 -45 231 -43 224 47 -5
77 -18 91 -59 67 -34 -19 -90 -22 -119 -7 -43 23 -61 184 -27 249 14 27 15 36
5 43 -21 12 -69 8 -131 -12z"/>
<path d="M183 1183 c-19 -7 -16 -24 8 -50 30 -31 36 -106 14 -173 -9 -28 -15
-54 -12 -56 3 -3 33 2 68 12 36 9 125 19 204 23 l140 6 3 25 c2 14 -3 34 -11
44 -14 18 -16 19 -56 3 -60 -25 -116 -22 -135 5 -20 28 -21 107 -1 135 13 19
13 22 -1 27 -19 7 -204 7 -221 -1z"/>
<path d="M275 878 c-60 -32 -59 -76 3 -170 27 -40 79 -123 116 -185 51 -86 84
-128 143 -182 42 -39 85 -71 95 -71 58 0 7 188 -79 290 -24 29 -28 41 -25 86
6 83 -55 191 -129 230 -33 17 -96 18 -124 2z m144 -134 c12 -16 21 -41 21 -62
0 -45 -12 -34 -39 36 -22 56 -15 68 18 26z m107 -249 c28 -59 32 -91 8 -60
-15 18 -64 121 -64 132 0 17 37 -30 56 -72z"/>
<path d="M523 879 c-22 -22 -15 -56 28 -140 54 -109 105 -264 123 -379 19
-114 46 -159 124 -202 72 -41 82 -35 82 54 0 70 -14 148 -27 148 -3 0 -12 -8
-19 -17 -26 -36 -72 28 -73 102 l0 30 29 -35 c33 -39 35 -33 19 55 -12 66 -37
135 -49 135 -4 0 -10 -9 -13 -20 -3 -11 -10 -20 -15 -20 -13 0 -46 96 -37 110
8 13 60 -14 74 -37 19 -34 22 -5 7 66 -16 77 -45 135 -73 145 -10 4 -51 9 -93
12 -55 5 -78 3 -87 -7z"/>
<path d="M2297 858 c-55 -45 -67 -75 -67 -167 0 -78 -12 -113 -24 -68 -3 12
-6 39 -6 60 0 49 -23 102 -49 116 -16 9 -28 8 -51 -4 -46 -24 -60 -62 -60
-162 0 -78 -25 -236 -45 -285 -15 -37 24 -17 69 35 50 56 65 95 67 167 1 37 2
41 9 20 4 -14 8 -40 9 -57 1 -27 5 -33 22 -33 30 0 83 57 101 110 9 25 26 74
38 110 12 36 30 87 40 114 29 81 11 96 -53 44z"/>
<path d="M801 832 c-17 -32 -14 -44 34 -165 54 -134 75 -241 75 -391 0 -119 8
-147 50 -178 56 -41 89 23 70 134 -22 122 -24 154 -10 141 8 -7 18 -66 26
-148 7 -75 18 -143 25 -151 6 -8 24 -14 39 -14 57 0 59 92 5 221 -15 34 -34
73 -42 86 -15 23 -15 27 3 56 30 51 26 166 -8 240 -55 116 -114 168 -210 182
-40 6 -48 4 -57 -13z m182 -189 c23 -40 36 -138 17 -131 -13 4 -41 74 -55 138
-9 41 12 37 38 -7z"/>
<path d="M1092 788 c-22 -28 -23 -65 -2 -121 23 -60 28 -64 60 -45 29 18 52 0
68 -53 15 -53 16 -249 2 -334 -16 -93 -13 -139 11 -169 25 -31 49 -33 75 -5
17 20 19 37 18 213 -1 127 -7 215 -17 261 -8 39 -13 73 -10 78 6 10 41 9 64
-3 17 -10 19 -7 19 25 0 48 -23 100 -52 118 -12 8 -61 20 -108 26 -47 7 -92
14 -101 17 -9 2 -21 -1 -27 -8z"/>
<path d="M1404 725 c-17 -26 -17 -28 9 -81 51 -104 55 -225 11 -420 -19 -87
-16 -132 11 -150 25 -17 58 -2 89 39 17 23 21 47 26 148 3 72 9 118 15 117 11
-3 11 -21 0 -165 l-8 -103 27 0 c17 0 39 11 57 29 38 38 39 93 3 201 l-26 79
26 53 c15 30 29 78 33 106 6 52 5 53 -39 96 -45 42 -82 58 -175 71 -37 6 -43
4 -59 -20z m176 -104 c13 -25 13 -71 0 -91 -9 -13 -11 -13 -20 0 -5 8 -10 22
-10 31 0 9 -3 31 -6 48 -5 24 -3 31 9 31 9 0 21 -9 27 -19z"/>
<path d="M1857 739 c-45 -12 -57 -28 -57 -73 0 -56 -42 -226 -79 -320 -17 -42
-31 -92 -31 -111 0 -32 21 -65 41 -65 26 0 60 55 85 135 24 76 44 108 60 93 2
-3 7 -35 11 -72 3 -36 9 -66 13 -66 14 0 72 72 86 106 12 28 11 39 -1 73 -14
40 -42 193 -47 260 -2 27 -8 36 -28 41 -14 4 -38 3 -53 -1z m19 -256 c-3 -8
-10 -12 -15 -9 -8 5 -6 38 7 86 5 21 7 17 10 -19 2 -24 1 -50 -2 -58z"/>
</g>
</svg>
